<svg width="20" height="20" viewBox="0 0 20 20" fill="none" xmlns="http://www.w3.org/2000/svg">
<path d="M17.1751 15.9917C17.6973 15.2917 18.0557 14.4833 18.2238 13.6262C18.3919 12.7692 18.3653 11.8853 18.1462 11.0399C17.927 10.1944 17.5208 9.40897 16.9575 8.7415C16.3943 8.07402 15.6883 7.54155 14.8917 7.18338C14.7182 6.18513 14.3195 5.23956 13.7257 4.41852C13.132 3.59748 12.359 2.92257 11.4653 2.44507C10.5717 1.96757 9.58097 1.70005 8.56843 1.66283C7.5559 1.6256 6.54821 1.81966 5.62192 2.23026C4.69563 2.64086 3.87511 3.25719 3.22272 4.03242C2.57032 4.80765 2.10321 5.72139 1.85688 6.70421C1.61055 7.68702 1.59148 8.71306 1.80112 9.70435C2.01075 10.6956 2.44359 11.6261 3.06672 12.425L1.90839 13.575C1.79276 13.6922 1.71443 13.841 1.68328 14.0027C1.65214 14.1644 1.66957 14.3316 1.73339 14.4834C1.7959 14.6356 1.90207 14.7658 2.0385 14.8578C2.17494 14.9497 2.33553 14.9992 2.50005 15H7.24172C7.71393 15.9955 8.45842 16.837 9.38901 17.4269C10.3196 18.0168 11.3982 18.3311 12.5001 18.3334H17.5001C17.6646 18.3326 17.8252 18.2831 17.9616 18.1911C18.098 18.0992 18.2042 17.9689 18.2667 17.8167C18.3305 17.665 18.348 17.4977 18.3168 17.336C18.2857 17.1744 18.2074 17.0256 18.0917 16.9084L17.1751 15.9917ZM6.66672 12.5C6.66787 12.7791 6.69015 13.0577 6.73339 13.3334H4.50839L4.80005 13.05C4.87816 12.9726 4.94016 12.8804 4.98246 12.7789C5.02477 12.6773 5.04655 12.5684 5.04655 12.4584C5.04655 12.3484 5.02477 12.2394 4.98246 12.1379C4.94016 12.0363 4.87816 11.9442 4.80005 11.8667C4.33302 11.4048 3.96276 10.8544 3.71093 10.2477C3.4591 9.64105 3.33075 8.99025 3.33339 8.33338C3.33339 7.0073 3.86017 5.73553 4.79785 4.79784C5.73554 3.86016 7.00731 3.33338 8.33339 3.33338C9.36812 3.32716 10.3788 3.64536 11.2233 4.24326C12.0679 4.84116 12.7038 5.68869 13.0417 6.66671C12.8584 6.66671 12.6834 6.66671 12.5001 6.66671C10.953 6.66671 9.46923 7.28129 8.37526 8.37526C7.2813 9.46922 6.66672 10.9529 6.66672 12.5ZM15.4501 16.6667L15.4917 16.7084H12.5001C11.5362 16.7067 10.6027 16.3708 9.85865 15.758C9.11461 15.1453 8.60603 14.2935 8.41955 13.3478C8.23307 12.4022 8.38023 11.4211 8.83595 10.5717C9.29167 9.72238 10.0278 9.0573 10.9188 8.68979C11.8099 8.32229 12.8009 8.27509 13.7228 8.55623C14.6448 8.83738 15.4408 9.42948 15.9752 10.2317C16.5096 11.0339 16.7493 11.9965 16.6536 12.9556C16.5578 13.9147 16.1325 14.811 15.4501 15.4917C15.293 15.6456 15.2032 15.8552 15.2001 16.075C15.2005 16.1853 15.2228 16.2944 15.2658 16.3959C15.3087 16.4975 15.3713 16.5895 15.4501 16.6667Z" fill="black"/>
</svg>
