<svg width="11" height="14" viewBox="0 0 11 14" fill="none" xmlns="http://www.w3.org/2000/svg">
<path d="M10.3125 1.875H7.96875V0.46875C7.96875 0.34443 7.91936 0.225201 7.83146 0.137294C7.74355 0.049386 7.62432 0 7.5 0H2.8125C2.68818 0 2.56895 0.049386 2.48104 0.137294C2.39314 0.225201 2.34375 0.34443 2.34375 0.46875V1.875H0V2.8125H0.9375V11.7188C0.9375 12.0917 1.08566 12.4494 1.34938 12.7131C1.6131 12.9768 1.97079 13.125 2.34375 13.125H7.96875C8.34171 13.125 8.6994 12.9768 8.96312 12.7131C9.22684 12.4494 9.375 12.0917 9.375 11.7188V2.8125H10.3125V1.875ZM3.28125 0.9375H7.03125V1.875H3.28125V0.9375ZM8.4375 11.7188C8.4375 11.8431 8.38811 11.9623 8.30021 12.0502C8.2123 12.1381 8.09307 12.1875 7.96875 12.1875H2.34375C2.21943 12.1875 2.1002 12.1381 2.01229 12.0502C1.92439 11.9623 1.875 11.8431 1.875 11.7188V2.8125H8.4375V11.7188ZM3.75 5.625H4.6875V9.375H3.75V5.625ZM5.625 5.625H6.5625V9.375H5.625V5.625Z" fill="black"/>
</svg>
