<svg width="21" height="20" viewBox="0 0 21 20" fill="none" xmlns="http://www.w3.org/2000/svg">
<path d="M17.6819 9.58336C17.6848 10.6832 17.4278 11.7683 16.9319 12.75C16.3439 13.9265 15.44 14.916 14.3214 15.6078C13.2028 16.2995 11.9138 16.6662 10.5986 16.6667C9.49866 16.6696 8.41365 16.4126 7.43188 15.9167L2.68188 17.5L4.26522 12.75C3.76933 11.7683 3.51235 10.6832 3.51522 9.58336C3.51573 8.26815 3.88239 6.97907 4.57415 5.86048C5.26591 4.7419 6.25543 3.838 7.43188 3.25002C8.41365 2.75413 9.49866 2.49716 10.5986 2.50002H11.0152C12.7522 2.59585 14.3928 3.32899 15.6228 4.55907C16.8529 5.78915 17.5861 7.42973 17.6819 9.16669V9.58336Z" stroke="#767676" stroke-width="1.5" stroke-linecap="round" stroke-linejoin="round"/>
</svg>
