<svg width="18" height="18" viewBox="0 0 18 18" fill="none" xmlns="http://www.w3.org/2000/svg">
<path d="M17.2787 0.567366C17.085 0.373374 16.852 0.222747 16.5952 0.12554C16.3385 0.0283331 16.0638 -0.0132159 15.7896 0.0036669C15.5154 0.0205497 15.248 0.0954759 15.0052 0.223443C14.7624 0.35141 14.5498 0.529473 14.3817 0.745744L9.07043 7.5513C9.02499 7.60937 9.00239 7.68194 9.00686 7.75541C9.01134 7.82888 9.04258 7.89821 9.09473 7.95038L10.0057 8.85739C10.0581 8.90931 10.1278 8.94041 10.2016 8.94487C10.2754 8.94932 10.3483 8.92682 10.4066 8.88158L17.2544 3.59979C17.4706 3.43234 17.6486 3.22101 17.7765 2.97983C17.9044 2.73865 17.9794 2.47314 17.9963 2.20092C18.0132 1.9287 17.9718 1.65601 17.8748 1.40095C17.7778 1.1459 17.6274 0.914304 17.4336 0.721557L17.2787 0.567366ZM9.82658 9.47415L8.47524 8.12876L7.28788 9.31089C6.5864 9.05693 5.68146 9.066 4.63683 9.35624C3.27844 9.73816 2.03599 10.4486 1.0201 11.4242C-0.801934 13.2624 0.157669 15.5662 1.26303 16.6667C1.89272 17.3287 2.71263 17.7807 3.61042 17.9607C3.77202 17.9872 3.93555 18.0003 4.09933 18C4.55794 17.9879 5.00941 17.8839 5.42679 17.6943C5.84418 17.5047 6.21893 17.2334 6.5287 16.8965C8.20193 15.2306 9.283 12.4038 8.6544 10.6533L9.82658 9.47415ZM0.874334 15.0311C0.619689 14.5093 0.539211 13.9201 0.644647 13.3496C0.750083 12.779 1.03591 12.257 1.46042 11.8596C2.40299 10.9633 3.54889 10.3068 4.80081 9.94579C5.25016 9.81685 5.7149 9.74872 6.18252 9.74323C6.32065 9.74276 6.45865 9.75185 6.59551 9.77044C5.20469 10.2542 3.35837 11.6419 2.29855 12.697C1.49382 13.4861 1.0201 14.2783 0.874334 15.0311ZM1.69121 16.2404C1.57677 16.0983 1.49603 15.9324 1.45501 15.7549C1.414 15.5775 1.41377 15.3931 1.45435 15.2155C1.52419 14.765 1.80053 14.0364 2.72977 13.0991C4.39389 11.4544 6.63802 10.1665 7.45794 10.1665C7.50357 10.1621 7.54961 10.1668 7.5934 10.1803C7.63719 10.1938 7.67785 10.2158 7.71302 10.2451C7.82842 10.36 7.86182 10.9133 7.15427 12.174C6.51351 13.2761 5.73384 14.2921 4.83421 15.1974C2.89679 17.1383 1.93111 16.4853 1.69121 16.2404ZM6.10052 16.4702C5.36564 17.2018 4.56091 17.5042 3.70759 17.3772C3.43086 17.3297 3.16208 17.2442 2.90893 17.1232C3.51628 16.9993 4.30886 16.5972 5.26239 15.6478C6.20701 14.7024 7.0237 13.6382 7.69176 12.4824C7.89718 12.1273 8.07094 11.7551 8.21104 11.3698C8.39932 12.8815 7.43972 15.1369 6.10052 16.4702Z" fill="#4E4E4E"/>
</svg>
