<svg width="21" height="21" viewBox="0 0 21 21" fill="none" xmlns="http://www.w3.org/2000/svg">
<path fill-rule="evenodd" clip-rule="evenodd" d="M10.4498 1.09375H11.8125C12.1749 1.09375 12.4688 1.38757 12.4688 1.75C12.4688 2.11243 12.1749 2.40625 11.8125 2.40625H10.5C8.41905 2.40625 6.92437 2.40764 5.78688 2.56057C4.66827 2.71097 3.99389 2.997 3.49545 3.49545C2.83067 4.16023 2.54839 5.13195 2.45365 7.03267C2.43561 7.39466 2.12753 7.67348 1.76554 7.65544C1.40355 7.63739 1.12473 7.32931 1.14278 6.96733C1.23937 5.02952 1.52811 3.60664 2.56737 2.56737C3.35033 1.78441 4.34785 1.42974 5.612 1.25978C6.84704 1.09373 8.42995 1.09374 10.4498 1.09375ZM19.25 8.53125C19.6124 8.53125 19.9062 8.82507 19.9062 9.1875V10.5502C19.9062 12.5701 19.9063 14.1529 19.7403 15.388C19.5703 16.6521 19.2156 17.6497 18.4327 18.4327C17.6497 19.2156 16.6521 19.5703 15.388 19.7403C14.1529 19.9063 12.5701 19.9062 10.5502 19.9062H10.4498C8.42995 19.9062 6.84704 19.9063 5.612 19.7403C4.34785 19.5703 3.35033 19.2156 2.56737 18.4327C1.78441 17.6497 1.42974 16.6521 1.25978 15.388C1.09373 14.1529 1.09374 12.5701 1.09375 10.5502V10.5C1.09375 10.1376 1.38757 9.84375 1.75 9.84375C2.11243 9.84375 2.40625 10.1376 2.40625 10.5C2.40625 12.5809 2.40764 14.0756 2.56057 15.2131C2.71097 16.3317 2.997 17.0061 3.49545 17.5045C3.99389 18.003 4.66827 18.2891 5.78688 18.4394C6.92437 18.5924 8.41905 18.5938 10.5 18.5938C12.5809 18.5938 14.0756 18.5924 15.2131 18.4394C16.3317 18.2891 17.0061 18.003 17.5045 17.5045C18.003 17.0061 18.2891 16.3317 18.4394 15.2131C18.5924 14.0756 18.5938 12.5809 18.5938 10.5V9.1875C18.5938 8.82507 18.8876 8.53125 19.25 8.53125Z" fill="#111111"/>
<path fill-rule="evenodd" clip-rule="evenodd" d="M14.6742 1.99143C15.8711 0.794524 17.8117 0.794524 19.0086 1.99143C20.2055 3.18832 20.2055 5.12888 19.0086 6.32578L15.8312 9.50311C15.5749 9.7594 15.1595 9.7594 14.9032 9.50311C14.6469 9.24682 14.6469 8.83137 14.9032 8.57505L16.717 6.7612C16.2656 6.56704 15.7397 6.25578 15.2419 5.75807C14.7442 5.26037 14.433 4.73447 14.2388 4.283L9.81533 8.70648C9.45089 9.07095 9.30792 9.2155 9.18647 9.37125C9.03649 9.56349 8.90787 9.77165 8.80296 9.9918C8.71797 10.1701 8.65261 10.3625 8.48962 10.8515L8.11172 11.9852L9.01479 12.8883L10.1485 12.5104C10.6375 12.3474 10.8299 12.282 11.0082 12.1971C11.2284 12.0921 11.4365 11.9635 11.6289 11.8135C11.7845 11.6921 11.9291 11.5491 12.2935 11.1847C12.5498 10.9284 12.9653 10.9284 13.2216 11.1847C13.4779 11.441 13.4779 11.8565 13.2216 12.1128L13.1915 12.1429C12.8666 12.4678 12.6631 12.6713 12.436 12.8485C12.1686 13.0571 11.8791 13.2359 11.5729 13.3819C11.3129 13.5058 11.0398 13.5968 10.604 13.742L8.0625 14.5892C7.59328 14.7456 7.07597 14.6235 6.72624 14.2738C6.37651 13.924 6.25439 13.4067 6.41079 12.9375L7.25794 10.396C7.40321 9.96021 7.49421 9.68712 7.61812 9.42716C7.76406 9.12091 7.94293 8.83146 8.15156 8.56399C8.3287 8.33688 8.53223 8.13338 8.85712 7.80851L14.6742 1.99143ZM15.2728 3.24905C15.2927 3.33293 15.3204 3.43286 15.3591 3.54433C15.4845 3.90575 15.7218 4.38174 16.17 4.82999C16.6183 5.27823 17.0943 5.51553 17.4557 5.64092C17.5671 5.6796 17.6671 5.70739 17.751 5.72725L18.0805 5.39771C18.7648 4.71337 18.7648 3.60383 18.0805 2.91951C17.3962 2.23517 16.2867 2.23517 15.6023 2.91951L15.2728 3.24905Z" fill="#111111"/>
</svg>
