<svg width="21" height="21" viewBox="0 0 21 21" fill="none" xmlns="http://www.w3.org/2000/svg">
<g clip-path="url(#clip0_312_125)">
<path d="M19.3253 12.838C19.0231 12.5374 18.7835 12.1798 18.6204 11.786C18.4573 11.3922 18.3739 10.97 18.375 10.5438V7.875C18.375 5.78642 17.5453 3.78338 16.0685 2.30653C14.5916 0.829685 12.5886 0 10.5 0C8.41145 0 6.40841 0.829685 4.93156 2.30653C3.45471 3.78338 2.62503 5.78642 2.62503 7.875V10.5438C2.62614 10.97 2.54273 11.3922 2.37962 11.786C2.21652 12.1798 1.97695 12.5374 1.67478 12.838C1.29282 13.2199 1.03269 13.7065 0.927303 14.2363C0.821914 14.7661 0.875995 15.3152 1.08271 15.8142C1.28942 16.3132 1.63947 16.7398 2.0886 17.0398C2.53773 17.3399 3.06576 17.5 3.6059 17.5H6.21253C6.41335 18.489 6.94992 19.3782 7.7313 20.0168C8.51269 20.6555 9.49084 21.0044 10.5 21.0044C11.5092 21.0044 12.4874 20.6555 13.2688 20.0168C14.0501 19.3782 14.5867 18.489 14.7875 17.5H17.395C17.9352 17.5 18.4632 17.3399 18.9123 17.0398C19.3615 16.7398 19.7115 16.3132 19.9182 15.8142C20.1249 15.3152 20.179 14.7661 20.0736 14.2363C19.9682 13.7065 19.7072 13.2199 19.3253 12.838ZM10.5 19.25C9.95905 19.2478 9.43198 19.0784 8.99092 18.7652C8.54986 18.4519 8.21635 18.01 8.03603 17.5H12.964C12.7837 18.01 12.4502 18.4519 12.0091 18.7652C11.5681 19.0784 11.041 19.2478 10.5 19.25ZM17.3942 15.75H3.6059C3.41182 15.7501 3.22206 15.6927 3.06065 15.5849C2.89924 15.4771 2.77343 15.3239 2.69914 15.1446C2.62485 14.9653 2.60543 14.768 2.64332 14.5776C2.68122 14.3873 2.77473 14.2124 2.91203 14.0753C3.37722 13.6125 3.74604 13.0622 3.99716 12.456C4.24828 11.8498 4.37672 11.1999 4.37503 10.5438V7.875C4.37503 6.25055 5.02034 4.69263 6.169 3.54397C7.31766 2.39531 8.87558 1.75 10.5 1.75C12.1245 1.75 13.6824 2.39531 14.8311 3.54397C15.9797 4.69263 16.625 6.25055 16.625 7.875V10.5438C16.6233 11.1999 16.7518 11.8498 17.0029 12.456C17.254 13.0622 17.6228 13.6125 18.088 14.0753C18.2253 14.2124 18.3188 14.3873 18.3567 14.5776C18.3946 14.768 18.3752 14.9653 18.3009 15.1446C18.2266 15.3239 18.1008 15.4771 17.9394 15.5849C17.778 15.6927 17.5882 15.7501 17.3942 15.75Z" fill="#9F8170"/>
</g>
<defs>
<clipPath id="clip0_312_125">
<rect width="21" height="21" fill="white"/>
</clipPath>
</defs>
</svg>
