<svg width="50" height="50" viewBox="0 0 50 50" fill="none" xmlns="http://www.w3.org/2000/svg">
<path d="M30.3525 33.545C30.6746 33.8704 30.8553 34.3097 30.8553 34.7675C30.8553 35.2253 30.6746 35.6647 30.3525 35.99C30.1943 36.1506 30.0058 36.2782 29.7978 36.3653C29.5899 36.4523 29.3667 36.4972 29.1413 36.4972C28.9158 36.4972 28.6926 36.4523 28.4847 36.3653C28.2767 36.2782 28.0882 36.1506 27.93 35.99L18.355 26.22C18.0333 25.8939 17.853 25.4543 17.853 24.9963C17.853 24.5382 18.0333 24.0986 18.355 23.7725L27.93 14.0025C28.0882 13.8419 28.2767 13.7143 28.4847 13.6273C28.6926 13.5402 28.9158 13.4954 29.1413 13.4954C29.3667 13.4954 29.5899 13.5402 29.7978 13.6273C30.0058 13.7143 30.1943 13.8419 30.3525 14.0025C30.6746 14.3279 30.8553 14.7672 30.8553 15.225C30.8553 15.6829 30.6746 16.1222 30.3525 16.4475L22.5 25L30.3525 33.545Z" fill="white"/>
</svg>
