<svg width="21" height="21" viewBox="0 0 21 21" fill="none" xmlns="http://www.w3.org/2000/svg">
<path d="M14.8813 5.29883C14.8813 5.49469 14.8646 5.69055 14.8342 5.88419C14.848 5.80629 14.8619 5.72617 14.873 5.64827C14.8065 6.03554 14.679 6.41168 14.4933 6.77225C14.5293 6.70103 14.5681 6.6298 14.6042 6.55858C14.4185 6.91024 14.1802 7.23965 13.8892 7.54235L14.0638 7.36206C13.7756 7.66031 13.4402 7.92962 13.0689 8.16109L13.2934 8.02088C12.9165 8.25235 12.5063 8.44599 12.0685 8.59511C12.1572 8.56618 12.2458 8.53502 12.3345 8.50608C11.8856 8.6552 11.4172 8.75759 10.935 8.811C11.032 8.79988 11.1318 8.78875 11.2288 8.77984C10.7438 8.83103 10.2561 8.83103 9.77113 8.77984C9.86813 8.79097 9.96789 8.8021 10.0649 8.811C9.58269 8.75759 9.11435 8.6552 8.66541 8.50608C8.75409 8.53502 8.84277 8.56618 8.93145 8.59511C8.4936 8.44599 8.08346 8.25458 7.70657 8.02088L7.93104 8.16109C7.55969 7.92962 7.22437 7.66031 6.93617 7.36206L7.11075 7.54235C6.82255 7.23965 6.58145 6.91024 6.39578 6.55858C6.4318 6.6298 6.4706 6.70103 6.50663 6.77225C6.32095 6.41168 6.19348 6.03554 6.12697 5.64827C6.14082 5.72617 6.15468 5.80629 6.16577 5.88419C6.10203 5.49469 6.10203 5.10297 6.16577 4.71347C6.15191 4.79137 6.13805 4.87149 6.12697 4.94939C6.19348 4.56212 6.32095 4.18597 6.50663 3.82541C6.4706 3.89663 6.4318 3.96785 6.39578 4.03907C6.58145 3.68741 6.81978 3.35801 7.11075 3.05531L6.93617 3.23559C7.22437 2.93735 7.55969 2.66803 7.93104 2.43656L7.70657 2.57678C8.08346 2.34531 8.4936 2.15167 8.93145 2.00255C8.84277 2.03148 8.75409 2.06264 8.66541 2.09157C9.11435 1.94245 9.58269 1.84007 10.0649 1.78665C9.96789 1.79778 9.86813 1.80891 9.77113 1.81781C10.2561 1.76662 10.7438 1.76662 11.2288 1.81781C11.1318 1.80668 11.032 1.79555 10.935 1.78665C11.4172 1.84007 11.8856 1.94245 12.3345 2.09157C12.2458 2.06264 12.1572 2.03148 12.0685 2.00255C12.5063 2.15167 12.9165 2.34308 13.2934 2.57678L13.0689 2.43656C13.4402 2.66803 13.7756 2.93735 14.0638 3.23559L13.8892 3.05531C14.1774 3.35801 14.4185 3.68741 14.6042 4.03907C14.5681 3.96785 14.5293 3.89663 14.4933 3.82541C14.679 4.18597 14.8065 4.56212 14.873 4.94939C14.8591 4.87149 14.8452 4.79137 14.8342 4.71347C14.8646 4.9071 14.8785 5.10297 14.8813 5.29883C14.884 5.764 15.3884 6.21137 15.9898 6.18911C16.5884 6.16686 17.101 5.79739 17.0983 5.29883C17.0927 4.23271 16.6937 3.14211 15.9122 2.27408C15.7016 2.04038 15.4771 1.81113 15.2277 1.60414C14.9755 1.39493 14.6984 1.21464 14.4102 1.03881C13.8864 0.71831 13.3017 0.482384 12.6809 0.299875C10.1785 -0.436836 7.16064 0.21975 5.46742 1.87568C5.23463 2.1027 5.01293 2.33863 4.82449 2.59236C4.63605 2.84387 4.48917 3.11095 4.35338 3.38249C4.09843 3.8855 3.96818 4.41967 3.91553 4.96052C3.81299 6.01996 4.15663 7.12614 4.84389 8.03423C5.50621 8.91116 6.50663 9.66345 7.67608 10.0886C8.01972 10.2132 8.37166 10.3289 8.73746 10.4113C9.1005 10.4914 9.46907 10.5359 9.84318 10.5715C10.5249 10.6361 11.2205 10.5916 11.8939 10.4825C14.4517 10.0641 16.5939 8.29464 16.9902 6.21805C17.0484 5.91535 17.0927 5.61265 17.0927 5.30551C17.0955 4.84033 16.58 4.39296 15.9842 4.41522C15.3856 4.4308 14.8813 4.80027 14.8813 5.29883ZM18.5587 19.2162H4.33953C3.71046 19.2162 3.08139 19.2207 2.45232 19.2162C2.38304 19.2162 2.31376 19.2118 2.24725 19.2051C2.34424 19.2162 2.44401 19.2273 2.541 19.2362C2.43015 19.2229 2.32484 19.1984 2.22231 19.165C2.31099 19.194 2.39967 19.2251 2.48835 19.2541C2.3775 19.2162 2.27496 19.1672 2.17797 19.1072L2.40244 19.2474C2.3193 19.1917 2.24171 19.1316 2.1752 19.0649L2.34978 19.2451C2.27496 19.1672 2.21677 19.0849 2.16688 18.9959C2.20291 19.0671 2.24171 19.1383 2.27773 19.2095C2.23616 19.1272 2.20845 19.0404 2.18905 18.9536C2.20291 19.0315 2.21677 19.1116 2.22785 19.1895C2.18351 18.9202 2.21399 18.6353 2.21399 18.3638V17.4112C2.21399 17.173 2.23062 16.9371 2.26942 16.7012C2.25556 16.7791 2.24171 16.8592 2.23062 16.9371C2.30822 16.4808 2.45786 16.0334 2.68233 15.6083C2.64631 15.6796 2.60751 15.7508 2.57148 15.822C2.78764 15.4169 3.06476 15.0363 3.40008 14.6869L3.22549 14.8672C3.56081 14.5222 3.94601 14.2106 4.37832 13.9413L4.15385 14.0815C4.58894 13.8122 5.06282 13.5896 5.56718 13.416C5.4785 13.4449 5.38982 13.4761 5.30114 13.505C5.83045 13.327 6.38469 13.2046 6.95556 13.1422C6.85857 13.1534 6.75881 13.1645 6.66182 13.1734C7.07196 13.1311 7.47933 13.1289 7.89224 13.1289H12.9636C13.4208 13.1289 13.8753 13.1267 14.3326 13.1734C14.2356 13.1623 14.1358 13.1511 14.0388 13.1422C14.6069 13.2046 15.1639 13.3247 15.6932 13.505C15.6046 13.4761 15.5159 13.4449 15.4272 13.416C15.9316 13.5896 16.4055 13.8122 16.8405 14.0815L16.6161 13.9413C17.0456 14.2106 17.4336 14.52 17.7689 14.8672L17.5943 14.6869C17.9296 15.0363 18.2067 15.4169 18.4229 15.822C18.3869 15.7508 18.3481 15.6796 18.3121 15.6083C18.5338 16.0334 18.6862 16.4786 18.7638 16.9371C18.7499 16.8592 18.7361 16.7791 18.725 16.7012C18.7776 17.0372 18.7804 17.3711 18.7804 17.7094V18.8111C18.7804 18.938 18.7859 19.0649 18.7665 19.1895C18.7804 19.1116 18.7943 19.0315 18.8053 18.9536C18.7887 19.0426 18.7582 19.1272 18.7167 19.2095C18.7527 19.1383 18.7915 19.0671 18.8275 18.9959C18.7804 19.0849 18.7194 19.1672 18.6446 19.2451L18.8192 19.0649C18.7499 19.1316 18.6751 19.194 18.592 19.2474L18.8164 19.1072C18.7194 19.1672 18.6169 19.214 18.506 19.2541C18.5947 19.2251 18.6834 19.194 18.7721 19.165C18.6695 19.1984 18.5615 19.2207 18.4534 19.2362C18.5504 19.2251 18.6501 19.214 18.7471 19.2051C18.6862 19.2118 18.6224 19.214 18.5587 19.2162C18.2733 19.2184 17.9795 19.3141 17.7744 19.4766C17.5832 19.6302 17.4363 19.8839 17.4502 20.1065C17.4779 20.5828 17.9379 21.0035 18.5587 20.9968C19.6367 20.9834 20.5845 20.4181 20.9004 19.5879C21.0251 19.2585 20.9974 18.9046 20.9974 18.5663C20.9974 17.7918 21.0279 17.0239 20.8616 16.256C20.6177 15.132 19.9138 14.0748 18.9494 13.2446C17.9851 12.4144 16.6881 11.8046 15.3164 11.5331C14.5293 11.3773 13.7368 11.3528 12.9331 11.3528H8.01694C7.19389 11.3528 6.37638 11.3839 5.57549 11.5553C4.21482 11.8447 2.93451 12.4612 1.98952 13.298C1.03622 14.1416 0.346187 15.201 0.121717 16.3317C-0.0279291 17.0907 0.00255435 17.8519 0.00255435 18.6175C0.00255435 18.9692 -0.0223866 19.3364 0.135573 19.6725C0.340644 20.1043 0.667649 20.4448 1.14707 20.7008C1.52119 20.8989 1.99507 20.9946 2.43846 20.999C2.65462 21.0012 2.87077 20.999 3.08693 20.999H18.5615C19.1407 20.999 19.6977 20.5895 19.67 20.1087C19.6422 19.6235 19.1822 19.2162 18.5587 19.2162Z" fill="#926B58"/>
</svg>
