<svg width="26" height="25" viewBox="0 0 26 25" fill="none" xmlns="http://www.w3.org/2000/svg">
<path d="M13.4248 14.8438C13.4248 13.6719 13.503 12.3437 14.2061 10.9375M8.73733 14.8438C8.73733 13.6719 8.81545 12.8125 9.51858 11.4844M18.1123 14.8438C18.1123 13.8281 18.1905 12.9688 18.7373 11.7969M13.4248 3.90625C14.753 5.70312 12.0186 5.70312 13.4248 7.8125M7.95608 4.6875C9.2842 6.48437 6.54983 6.48437 7.95608 8.59375M18.8936 4.6875C20.2217 6.48437 17.4873 6.48437 18.8936 8.59375M13.4248 21.0938C23.9717 21.0938 23.7373 19.6875 23.503 16.7187C23.2686 13.4375 19.6748 10.9375 13.4248 10.9375C7.17483 10.9375 3.58108 13.4375 3.3467 16.7187C3.11233 19.6875 2.87795 21.0938 13.4248 21.0938Z" stroke="#926B58" stroke-width="2" stroke-miterlimit="10" stroke-linecap="round" stroke-linejoin="round"/>
</svg>
