<svg width="25" height="25" viewBox="0 0 25 25" fill="none" xmlns="http://www.w3.org/2000/svg">
<path d="M22.553 21.0739L18.6884 17.2405C20.1885 15.3701 20.915 12.996 20.7184 10.6065C20.5219 8.21688 19.4173 5.99342 17.6317 4.39328C15.8461 2.79313 13.5153 1.93793 11.1186 2.00351C8.72181 2.0691 6.44127 3.05048 4.74588 4.74588C3.05048 6.44127 2.0691 8.72181 2.00351 11.1186C1.93793 13.5153 2.79313 15.8461 4.39328 17.6317C5.99342 19.4173 8.21688 20.5219 10.6065 20.7185C12.996 20.915 15.3701 20.1885 17.2405 18.6884L21.0739 22.5218C21.1707 22.6194 21.2859 22.6969 21.4128 22.7498C21.5398 22.8027 21.6759 22.8299 21.8134 22.8299C21.9509 22.8299 22.0871 22.8027 22.214 22.7498C22.341 22.6969 22.4562 22.6194 22.553 22.5218C22.7408 22.3275 22.8457 22.068 22.8457 21.7978C22.8457 21.5277 22.7408 21.2681 22.553 21.0739ZM11.3968 18.6884C9.95461 18.6884 8.54485 18.2608 7.34574 17.4596C6.14663 16.6584 5.21204 15.5196 4.66015 14.1872C4.10826 12.8548 3.96386 11.3887 4.24521 9.97424C4.52656 8.55979 5.22103 7.26054 6.24078 6.24079C7.26054 5.22103 8.55979 4.52656 9.97424 4.24521C11.3887 3.96386 12.8548 4.10826 14.1872 4.66015C15.5195 5.21204 16.6584 6.14663 17.4596 7.34574C18.2608 8.54485 18.6884 9.95462 18.6884 11.3968C18.6884 13.3306 17.9202 15.1853 16.5528 16.5528C15.1853 17.9202 13.3306 18.6884 11.3968 18.6884Z" fill="#926B58"/>
</svg>
