<svg width="16" height="15" viewBox="0 0 16 15" fill="none" xmlns="http://www.w3.org/2000/svg">
<path d="M0.353999 2.78345L6.5393 13.4704C6.68757 13.7265 6.90057 13.9391 7.15693 14.0869C7.4133 14.2347 7.70401 14.3125 7.99993 14.3125C8.29585 14.3125 8.58657 14.2347 8.84293 14.0869C9.09929 13.9391 9.31229 13.7265 9.46057 13.4704L9.46002 13.4704L15.6459 2.78345C15.7945 2.527 15.8729 2.23591 15.8733 1.9395C15.8736 1.64309 15.7959 1.35182 15.6479 1.09503C15.4998 0.838227 15.2867 0.624966 15.0301 0.476715C14.7734 0.328463 14.4822 0.250457 14.1858 0.250551L1.81408 0.25055C1.51767 0.250456 1.22647 0.328462 0.969799 0.476714C0.713128 0.624964 0.500049 0.838226 0.352018 1.09502C0.203987 1.35182 0.12623 1.64309 0.126578 1.9395C0.126927 2.23591 0.205366 2.527 0.353999 2.78345Z" fill="#957969"/>
</svg>
