<svg width="26" height="25" viewBox="0 0 26 25" fill="none" xmlns="http://www.w3.org/2000/svg">
<g clip-path="url(#clip0_312_131)">
<path d="M13.7373 12.7292C14.2931 12.2481 14.7389 11.653 15.0444 10.9844C15.35 10.3158 15.5081 9.58932 15.5081 8.85421C15.5081 7.47287 14.9594 6.14811 13.9826 5.17136C13.0059 4.19461 11.6811 3.64587 10.2998 3.64587C8.91843 3.64587 7.59367 4.19461 6.61692 5.17136C5.64016 6.14811 5.09143 7.47287 5.09143 8.85421C5.09142 9.58932 5.24956 10.3158 5.5551 10.9844C5.86065 11.653 6.30645 12.2481 6.86226 12.7292C5.40408 13.3895 4.16692 14.4558 3.2987 15.8006C2.43049 17.1454 1.96796 18.7118 1.96643 20.3125C1.96643 20.5888 2.07618 20.8538 2.27153 21.0491C2.46688 21.2445 2.73183 21.3542 3.0081 21.3542C3.28436 21.3542 3.54932 21.2445 3.74467 21.0491C3.94002 20.8538 4.04976 20.5888 4.04976 20.3125C4.04976 18.6549 4.70824 17.0652 5.88035 15.8931C7.05245 14.721 8.64216 14.0625 10.2998 14.0625C11.9574 14.0625 13.5471 14.721 14.7192 15.8931C15.8913 17.0652 16.5498 18.6549 16.5498 20.3125C16.5498 20.5888 16.6595 20.8538 16.8549 21.0491C17.0502 21.2445 17.3152 21.3542 17.5914 21.3542C17.8677 21.3542 18.1327 21.2445 18.328 21.0491C18.5234 20.8538 18.6331 20.5888 18.6331 20.3125C18.6316 18.7118 18.169 17.1454 17.3008 15.8006C16.4326 14.4558 15.1955 13.3895 13.7373 12.7292ZM10.2998 11.9792C9.6817 11.9792 9.07751 11.7959 8.56361 11.4525C8.0497 11.1092 7.64916 10.6211 7.41264 10.0501C7.17612 9.47907 7.11423 8.85074 7.23481 8.24455C7.35539 7.63836 7.65302 7.08154 8.09006 6.6445C8.5271 6.20746 9.08392 5.90983 9.69011 5.78925C10.2963 5.66867 10.9246 5.73056 11.4957 5.96708C12.0667 6.20361 12.5547 6.60415 12.8981 7.11805C13.2415 7.63195 13.4248 8.23614 13.4248 8.85421C13.4248 9.68301 13.0955 10.4779 12.5095 11.0639C11.9234 11.65 11.1286 11.9792 10.2998 11.9792ZM20.4456 12.3125C21.1122 11.5618 21.5477 10.6345 21.6996 9.64206C21.8514 8.64965 21.7132 7.63449 21.3016 6.71879C20.89 5.80309 20.2225 5.02587 19.3794 4.48069C18.5364 3.93551 17.5537 3.64561 16.5498 3.64587C16.2735 3.64587 16.0085 3.75562 15.8132 3.95097C15.6178 4.14632 15.5081 4.41127 15.5081 4.68754C15.5081 4.96381 15.6178 5.22876 15.8132 5.42411C16.0085 5.61946 16.2735 5.72921 16.5498 5.72921C17.3786 5.72921 18.1734 6.05845 18.7595 6.6445C19.3455 7.23055 19.6748 8.02541 19.6748 8.85421C19.6733 9.40133 19.5282 9.93848 19.254 10.4119C18.9798 10.8854 18.5861 11.2786 18.1123 11.5521C17.9578 11.6412 17.8288 11.7684 17.7376 11.9216C17.6465 12.0748 17.5961 12.2489 17.5914 12.4271C17.5871 12.604 17.6278 12.779 17.7098 12.9357C17.7918 13.0925 17.9124 13.2257 18.0602 13.323L18.4664 13.5938L18.6018 13.6667C19.8575 14.2622 20.9168 15.2042 21.655 16.3816C22.3931 17.559 22.7795 18.9229 22.7685 20.3125C22.7685 20.5888 22.8783 20.8538 23.0736 21.0491C23.269 21.2445 23.5339 21.3542 23.8102 21.3542C24.0864 21.3542 24.3514 21.2445 24.5468 21.0491C24.7421 20.8538 24.8518 20.5888 24.8518 20.3125C24.8604 18.714 24.46 17.1399 23.6888 15.7397C22.9176 14.3395 21.8012 13.1597 20.4456 12.3125Z" fill="#926B58"/>
</g>
<defs>
<clipPath id="clip0_312_131">
<rect width="25" height="25" fill="white" transform="translate(0.924805)"/>
</clipPath>
</defs>
</svg>
