<svg width="26" height="25" viewBox="0 0 26 25" fill="none" xmlns="http://www.w3.org/2000/svg">
<path d="M8.33105 12L7.59146 17.1458C7.51438 17.7604 7.89355 18.3333 8.77896 18.3333L13.9248 17.5937C14.1492 17.5639 14.3578 17.4614 14.5185 17.302C14.6008 17.2197 22.6748 9.15308 22.7477 9.06246C26.3331 5.10204 20.6904 -0.301085 16.8623 3.17704C16.7717 3.24996 8.70396 11.325 8.62271 11.4062C8.46331 11.567 8.36088 11.7755 8.33105 12ZM19.6748 4.18746C19.9476 4.18386 20.2184 4.2346 20.4715 4.33672C20.7245 4.43884 20.9547 4.59029 21.1486 4.78225C21.3425 4.97421 21.4962 5.20285 21.6009 5.45483C21.7055 5.70681 21.759 5.97711 21.7581 6.24996C21.7588 6.69445 21.6123 7.12666 21.3415 7.47912L18.4456 4.58329C18.8009 4.32012 19.2328 4.18103 19.6748 4.18746ZM10.3415 12.6354L16.9456 6.04162L19.8831 8.97912L13.2894 15.5833L9.85188 16.0729L10.3415 12.6354Z" fill="#926B58"/>
<path d="M20.7165 13.6719V17.7083C20.7156 18.5369 20.3861 19.3313 19.8002 19.9171C19.2144 20.503 18.42 20.8325 17.5915 20.8333H8.21645C7.3879 20.8325 6.59353 20.503 6.00766 19.9171C5.42178 19.3313 5.09228 18.5369 5.09145 17.7083V8.33333C5.09228 7.50479 5.42178 6.71041 6.00766 6.12454C6.59353 5.53867 7.3879 5.20916 8.21645 5.20833H12.3508C12.6271 5.20833 12.892 5.09859 13.0874 4.90324C13.2827 4.70789 13.3925 4.44293 13.3925 4.16667C13.3925 3.8904 13.2827 3.62545 13.0874 3.4301C12.892 3.23475 12.6271 3.125 12.3508 3.125H8.21645C6.83562 3.12665 5.51182 3.67592 4.53543 4.65231C3.55904 5.62871 3.00977 6.95251 3.00812 8.33333V17.7083C3.00977 19.0892 3.55904 20.413 4.53543 21.3894C5.51182 22.3657 6.83562 22.915 8.21645 22.9167H17.5915C18.9723 22.915 20.2961 22.3657 21.2725 21.3894C22.2489 20.413 22.7981 19.0892 22.7998 17.7083V13.6719C22.7998 13.3956 22.69 13.1307 22.4947 12.9353C22.2993 12.74 22.0344 12.6302 21.7581 12.6302C21.4818 12.6302 21.2169 12.74 21.0215 12.9353C20.8262 13.1307 20.7165 13.3956 20.7165 13.6719Z" fill="#926B58"/>
</svg>
